<?xml version="1.0" encoding="UTF-8" standalone="no"?>
<!-- Created with Inkscape (http://www.inkscape.org/) -->

<svg
   xmlns:dc="http://purl.org/dc/elements/1.1/"
   xmlns:cc="http://creativecommons.org/ns#"
   xmlns:rdf="http://www.w3.org/1999/02/22-rdf-syntax-ns#"
   xmlns:svg="http://www.w3.org/2000/svg"
   xmlns="http://www.w3.org/2000/svg"
   xmlns:sodipodi="http://sodipodi.sourceforge.net/DTD/sodipodi-0.dtd"
   xmlns:inkscape="http://www.inkscape.org/namespaces/inkscape"
   width="240"
   height="240"
   viewBox="0 0 63.499999 63.500002"
   version="1.1"
   id="svg8"
   inkscape:version="0.92.2 5c3e80d, 2017-08-06"
   sodipodi:docname="langue.link.svg">
  <defs
     id="defs2">
    <clipPath
       clipPathUnits="userSpaceOnUse"
       id="clipPath23">
      <rect
         style="color:#000000;clip-rule:nonzero;display:inline;overflow:visible;visibility:visible;opacity:1;isolation:auto;mix-blend-mode:normal;color-interpolation:sRGB;color-interpolation-filters:linearRGB;solid-color:#000000;solid-opacity:1;vector-effect:none;fill:#898c8d;fill-opacity:1;fill-rule:evenodd;stroke:none;stroke-width:0.35277775;stroke-linecap:butt;stroke-linejoin:miter;stroke-miterlimit:4;stroke-dasharray:none;stroke-dashoffset:0;stroke-opacity:1;color-rendering:auto;image-rendering:auto;shape-rendering:auto;text-rendering:auto;enable-background:accumulate"
         id="rect25"
         width="101.29515"
         height="94.613411"
         x="97.018837"
         y="97.616936" />
    </clipPath>
  </defs>
  <sodipodi:namedview
     id="base"
     pagecolor="#ffffff"
     bordercolor="#666666"
     borderopacity="1.0"
     inkscape:pageopacity="0.0"
     inkscape:pageshadow="2"
     inkscape:zoom="2"
     inkscape:cx="71.739045"
     inkscape:cy="7.3868411"
     inkscape:document-units="px"
     inkscape:current-layer="layer1"
     showgrid="false"
     showguides="false"
     inkscape:snap-global="true"
     inkscape:guide-bbox="true"
     inkscape:snap-bbox="false"
     inkscape:bbox-paths="true"
     inkscape:bbox-nodes="true"
     inkscape:snap-bbox-edge-midpoints="true"
     inkscape:snap-bbox-midpoints="true"
     inkscape:snap-page="false"
     inkscape:window-width="1620"
     inkscape:window-height="1352"
     inkscape:window-x="940"
     inkscape:window-y="27"
     inkscape:window-maximized="0"
     units="px"
     inkscape:snap-object-midpoints="true"
     inkscape:snap-center="true"
     inkscape:snap-grids="false"
     inkscape:object-paths="true"
     inkscape:snap-intersection-paths="true"
     inkscape:snap-smooth-nodes="true"
     inkscape:snap-midpoints="true"
     inkscape:snap-others="true"
     inkscape:object-nodes="true"
     inkscape:lockguides="false">
    <sodipodi:guide
       position="0,9.5250001"
       orientation="-0.95105652,0.30901699"
       id="guide4519"
       inkscape:locked="false"
       inkscape:label=""
       inkscape:color="rgb(0,0,255)" />
    <sodipodi:guide
       position="26.458334,0"
       orientation="-0.9945219,-0.10452846"
       id="guide4571"
       inkscape:locked="false"
       inkscape:label=""
       inkscape:color="rgb(0,0,255)" />
    <sodipodi:guide
       position="0,18.520833"
       orientation="-0.5,0.8660254"
       id="guide4575"
       inkscape:locked="false"
       inkscape:label=""
       inkscape:color="rgb(0,0,255)" />
    <sodipodi:guide
       position="31.749999,31.749978"
       orientation="-0.30901699,-0.95105652"
       id="guide4579"
       inkscape:locked="false"
       inkscape:label=""
       inkscape:color="rgb(0,0,255)" />
    <sodipodi:guide
       position="31.75,31.749978"
       orientation="-0.95105652,0.30901699"
       id="guide4589"
       inkscape:locked="false"
       inkscape:label=""
       inkscape:color="rgb(0,0,255)" />
    <sodipodi:guide
       position="63.499999,6.3500001"
       orientation="0,1"
       id="guide4609"
       inkscape:locked="false"
       inkscape:label=""
       inkscape:color="rgb(0,0,255)" />
    <sodipodi:guide
       position="19.235095,68.724463"
       orientation="-0.9945219,0.10452846"
       id="guide4548"
       inkscape:locked="false"
       inkscape:label=""
       inkscape:color="rgb(0,0,255)" />
    <sodipodi:guide
       position="3.5978534,20.598077"
       orientation="-0.77714596,0.62932039"
       id="guide4550"
       inkscape:locked="false"
       inkscape:label=""
       inkscape:color="rgb(0,0,255)" />
    <sodipodi:guide
       position="25.230264,11.684265"
       orientation="-0.9945219,0.10452846"
       id="guide4568"
       inkscape:locked="false"
       inkscape:label=""
       inkscape:color="rgb(0,0,255)" />
    <sodipodi:guide
       position="26.095676,33.587267"
       orientation="-0.9945219,-0.10452846"
       inkscape:locked="false"
       id="guide4570"
       inkscape:label=""
       inkscape:color="rgb(0,0,255)" />
    <sodipodi:guide
       position="17.63884,53.537115"
       orientation="-0.10452846,-0.9945219"
       id="guide4597"
       inkscape:locked="false"
       inkscape:label=""
       inkscape:color="rgb(0,0,255)" />
    <sodipodi:guide
       position="9.1733776,27.483329"
       orientation="-0.62932039,-0.77714596"
       id="guide4599"
       inkscape:locked="false"
       inkscape:label=""
       inkscape:color="rgb(0,0,255)" />
    <sodipodi:guide
       position="26.826519,26.871613"
       orientation="-0.10452846,-0.9945219"
       id="guide4633"
       inkscape:locked="false"
       inkscape:label=""
       inkscape:color="rgb(0,0,255)" />
    <sodipodi:guide
       position="9.1734033,27.483329"
       orientation="-0.30901699,-0.95105652"
       id="guide4643"
       inkscape:locked="false"
       inkscape:label=""
       inkscape:color="rgb(0,0,255)" />
    <sodipodi:guide
       position="9.1734033,27.483329"
       orientation="-0.8660254,-0.5"
       id="guide4645"
       inkscape:locked="false"
       inkscape:label=""
       inkscape:color="rgb(0,0,255)" />
    <sodipodi:guide
       position="17.63884,53.537115"
       orientation="-0.10452846,0.9945219"
       inkscape:locked="false"
       id="guide4647"
       inkscape:label=""
       inkscape:color="rgb(0,0,255)" />
    <sodipodi:guide
       position="17.63884,53.537115"
       orientation="-0.30901699,-0.95105652"
       id="guide4649"
       inkscape:locked="false"
       inkscape:label=""
       inkscape:color="rgb(0,0,255)" />
    <sodipodi:guide
       position="26.826518,26.871613"
       orientation="-0.30901699,-0.95105652"
       id="guide4663"
       inkscape:locked="false"
       inkscape:label=""
       inkscape:color="rgb(0,0,255)" />
    <sodipodi:guide
       position="26.826517,26.871613"
       orientation="-0.10452846,0.9945219"
       id="guide4665"
       inkscape:locked="false"
       inkscape:label=""
       inkscape:color="rgb(0,0,255)" />
    <sodipodi:guide
       position="26.826518,26.871613"
       orientation="-0.95105652,0.30901699"
       id="guide919"
       inkscape:locked="false"
       inkscape:label=""
       inkscape:color="rgb(0,0,255)" />
    <sodipodi:guide
       position="26.826518,26.871613"
       orientation="-0.8660254,-0.5"
       id="guide921"
       inkscape:locked="false"
       inkscape:label=""
       inkscape:color="rgb(0,0,255)" />
  </sodipodi:namedview>
  <metadata
     id="metadata5">
    <rdf:RDF>
      <cc:Work
         rdf:about="">
        <dc:format>image/svg+xml</dc:format>
        <dc:type
           rdf:resource="http://purl.org/dc/dcmitype/StillImage" />
        <dc:title />
      </cc:Work>
    </rdf:RDF>
  </metadata>
  <g
     inkscape:groupmode="layer"
     id="layer2"
     inkscape:label="Layer 2"
     sodipodi:insensitive="true"
     style="display:none">
    <path
       transform="translate(0,-233.49998)"
       style="opacity:0.297;fill:#000000;fill-opacity:1;stroke:none;stroke-width:0.35277775;stroke-opacity:1"
       d="m 44.529075,292.4966 c -1.14388,0.0719 -2.509005,-1.28978 -2.808693,-1.83453 -0.570538,-1.03709 -1.326838,-6.3057 -1.721212,-11.9905 -0.127687,-1.84059 -0.382651,-4.93514 -0.566589,-6.87678 l -0.334433,-3.53027 c -1.636349,-0.1702 -4.214163,0.24561 -5.765767,-0.39519 0,0 -0.199791,0.44712 -0.835406,2.18964 -0.438324,1.20166 -1.058614,2.33496 -1.378422,2.51846 -0.319812,0.18349 -0.794363,0.55775 -1.054562,0.83168 -0.260198,0.27393 -0.993368,0.78428 -1.629262,1.1341 -2.944779,1.62003 -5.304212,-0.61355 -6.336234,-5.99826 -0.09255,-0.48285 -0.181006,-0.91473 -0.196586,-0.95973 -3.275586,2.03065 -6.423736,4.0107 -9.633109,5.75705 -2.5673598,1.39236 -2.8802988,1.48025 -4.1480431,1.16503 -3.0945247,-0.76943 -4.3366231,-3.42721 -3.3491878,-7.1664 0.3006565,-1.13851 0.6772561,-2.39097 0.8368856,-2.78326 2.6472123,-8.43801 5.4047023,-17.44819 8.2816983,-24.81111 1.105878,-2.02481 2.05668,-2.97095 4.82654,-2.74066 0.988927,0.0791 3.120946,1.71345 3.142868,2.40925 0.0064,0.20614 0.753056,0.11041 1.22189,3.71824 0.468835,3.60782 1.861702,19.11955 1.861702,19.11955 1.894528,-0.63341 4.728038,0.14165 5.74729,1.09947 0,0 0.704457,-2.31453 1.305434,-4.26019 0.600975,-1.94565 3.866158,-4.6005 7.400966,-2.30003 1.622241,1.05577 2.012688,1.91375 2.081041,4.57296 0.02287,0.88963 0.11471,1.77197 0.397188,1.89823 0.238731,0.1067 0.610488,-0.44808 1.223767,-0.75295 1.11787,-0.55571 1.190552,-0.60287 4.774856,-3.09744 4.26417,-2.96774 4.88408,-3.28977 6.420538,-3.33527 1.948721,-0.0581 2.949983,0.40353 3.987205,1.83683 1.204632,1.66464 1.074257,3.56256 -0.58546,8.523 -1.444937,6.0228 -4.916405,15.9396 -6.816515,21.43889 -2.183851,4.12523 -2.678571,4.55967 -6.350388,4.62019 z m 3.528888,-7.59185 c 2.602278,-7.60563 5.25464,-15.33119 7.266886,-23.25699 0.05335,-1.3764 -0.02869,-1.55597 -0.74882,-1.6393 -0.473575,-0.0548 -1.558197,0.41978 -2.617266,1.14523 -3.334763,1.65351 -6.627704,4.33516 -9.700852,5.92557 l 0.266076,3.90759 c 0.346918,5.09479 1.66367,14.82164 2.21933,16.75724 0.291685,1.01606 0.952175,0.96049 1.225194,0.84759 1.536869,-0.42178 1.76621,-2.62158 2.089452,-3.68693 z M 29.700778,266.95413 c -0.854042,-0.992 -2.647876,-1.2292 -4.286459,-0.62181 0.330087,2.98694 0.448746,4.59599 1.601268,4.98275 1.420139,0.34728 1.806877,-1.34098 2.685191,-4.36094 z m -15.03855,0.93713 c 1.907322,-1.25659 6.597077,-4.38637 6.597077,-4.38637 0,0 -1.077311,-12.44042 -1.522282,-17.34192 -0.346848,-3.83573 -0.450562,-4.71869 -1.895087,-4.68156 -0.668442,0.0172 -0.972933,0.46052 -1.788841,2.60447 -3.257436,9.82677 -3.436776,10.59072 -7.111697,22.33553 -1.0549568,2.67744 -0.8244531,4.60021 0.5472518,4.56495 3.1728912,-1.54155 3.2662572,-1.83852 5.1735782,-3.0951 z m 23.303195,-2.92547 c 0.763792,-0.0246 0.791816,-0.1211 0.541001,-1.87142 -0.674004,-2.92028 -0.174673,-3.50199 -1.957848,-3.37961 -1.783172,0.12236 -2.489287,5.34213 -2.489287,5.34213 0,0 2.921681,-0.0532 3.906126,-0.0914 z"
       id="path27"
       inkscape:connector-curvature="0"
       sodipodi:nodetypes="ccssccccccccccccccczcczsscsssccccccccccscccccczcccssczcczccc" />
  </g>
  <g
     inkscape:label="Layer 1"
     inkscape:groupmode="layer"
     id="layer1"
     transform="translate(0,-233.49998)">
    <path
       id="path925-2"
       style="color:#000000;clip-rule:nonzero;display:inline;overflow:visible;visibility:visible;opacity:1;isolation:auto;mix-blend-mode:normal;color-interpolation:sRGB;color-interpolation-filters:linearRGB;solid-color:#000000;solid-opacity:1;vector-effect:none;fill:none;fill-opacity:1;fill-rule:evenodd;stroke:#000000;stroke-width:3.4395833;stroke-linecap:butt;stroke-linejoin:miter;stroke-miterlimit:4;stroke-dasharray:none;stroke-dashoffset:0;stroke-opacity:1;color-rendering:auto;image-rendering:auto;shape-rendering:auto;text-rendering:auto;enable-background:accumulate"
       d="m 39.75398,265.70725 a 6.1610132,6.1610132 0 0 1 -3.080489,0.82541 6.1610132,6.1610132 0 0 1 -1.90367,-0.30147 m -1.115935,-6.84087 a 3.1750617,3.1750617 0 0 1 3.019602,-2.19373 3.1750617,3.1750617 0 0 1 3.15772,2.84366 m 12.907867,-1.8066 a 3.1750617,3.1750617 0 0 1 1.587555,-0.42539 3.1750617,3.1750617 0 0 1 3.175062,3.17506 3.1750617,3.1750617 0 0 1 -0.155309,0.98087 m -8.465612,26.05429 a 3.1750617,3.1750617 0 0 1 -3.019603,2.19373 3.1750617,3.1750617 0 0 1 -3.157665,-2.84315 m 3e-5,-3e-5 -2.872421,-27.32927 m 9.049701,27.97853 8.465393,-26.0538 m -22.576583,4.26665 -3.01964,-0.98114 m 20.989098,-7.01631 -2.884405,1.66531 -10.09055,5.82578 m -8.014146,-0.4747 1.903892,-5.85957 m -9.907843,5.40224 a 6.1610133,6.1610133 0 0 1 3.080489,-0.82541 6.1610133,6.1610133 0 0 1 1.903669,0.30148 m 1.115936,6.84087 a 3.1750617,3.1750617 0 0 1 -3.019603,2.19373 3.1750617,3.1750617 0 0 1 -3.15772,-2.84366 m -12.907867,1.8066 a 3.1750617,3.1750617 0 0 1 -1.5875548,0.42539 3.1750617,3.1750617 0 0 1 -3.1750617,-3.17506 3.1750617,3.1750617 0 0 1 0.1553086,-0.98087 m 8.4656119,-26.05429 a 3.1750617,3.1750617 0 0 1 3.019603,-2.19373 3.1750617,3.1750617 0 0 1 3.157665,2.84315 m -3e-5,3e-5 2.872421,27.32927 m -9.049701,-27.97853 -8.4653926,26.0538 m 22.5765826,-4.26665 3.01964,0.98114 m -20.989098,7.01631 12.974955,-7.49109 m 8.014145,0.4747 -1.903891,5.85957" />
  </g>
</svg>
